<svg width="251" height="255" viewBox="0 0 251 255" fill="none" xmlns="http://www.w3.org/2000/svg">
<path d="M185.5 23C181.032 20.4344 176.394 18.1527 171.613 16.1725C156.994 10.1168 141.324 7 125.5 7C109.676 7 94.0064 10.1168 79.3866 16.1725C64.7669 22.2282 51.4831 31.1042 40.2936 42.2936C29.1042 53.4831 20.2282 66.7669 14.1725 81.3867C8.11682 96.0064 5 111.676 5 127.5C5 143.324 8.11682 158.994 14.1725 173.613C20.2282 188.233 29.1042 201.517 40.2936 212.706C51.4831 223.896 64.7669 232.772 79.3866 238.827C94.0064 244.883 109.676 248 125.5 248C141.324 248 156.994 244.883 171.613 238.827C176.642 236.745 181.512 234.328 186.193 231.599" stroke="#6497EB" stroke-width="9.5" stroke-linecap="round" stroke-linejoin="round"/>
<path d="M125.5 173C192.05 173 246 152.629 246 127.5C246 102.371 192.05 82 125.5 82C58.9497 82 5 102.371 5 127.5C5 152.629 58.9497 173 125.5 173Z" stroke="#6497EB" stroke-width="10"/>
<path d="M85.7432 150.53C119.055 208.227 163.918 244.689 185.948 231.97C207.978 219.251 198.832 162.168 165.521 104.47C132.209 46.773 87.3458 10.3108 65.3159 23.0297C43.286 35.7487 52.4317 92.8324 85.7432 150.53Z" stroke="#6497EB" stroke-width="10"/>
<path d="M85.7433 104.47C52.4317 162.168 43.2861 219.251 65.316 231.97C87.3459 244.689 132.209 208.227 165.521 150.53C198.832 92.8324 207.978 35.7487 185.948 23.0297C163.918 10.3108 119.055 46.7729 85.7433 104.47Z" stroke="#6497EB" stroke-width="10"/>
<path d="M102 151L117.937 146.385L147.655 116.666C148.399 115.923 148.988 115.04 149.391 114.069C149.793 113.098 150 112.057 150 111.005C150 109.954 149.793 108.913 149.391 107.942C148.988 106.971 148.399 106.088 147.655 105.345C146.912 104.601 146.029 104.012 145.058 103.609C144.087 103.207 143.046 103 141.995 103C140.943 103 139.902 103.207 138.931 103.609C137.96 104.012 137.077 104.601 136.334 105.345L106.615 135.063L102 151Z" stroke="#6497EB" stroke-width="9" stroke-linecap="round" stroke-linejoin="round"/>
<path d="M133 109L144 120" stroke="#6497EB" stroke-width="7" stroke-linejoin="round"/>
<path d="M109 133L120 144" stroke="#6497EB" stroke-width="7" stroke-linejoin="round"/>
</svg>
